<?xml version="1.0" encoding="utf-8"?>
<!DOCTYPE svg PUBLIC "-//W3C//DTD SVG 1.1//EN" "http://www.w3.org/Graphics/SVG/1.1/DTD/svg11.dtd">
<svg xmlns="http://www.w3.org/2000/svg" xmlns:xlink="http://www.w3.org/1999/xlink" version="1.1" baseProfile="full" width="175.857" height="55.5" viewBox="0 0 175.86 55.50" enable-background="new 0 0 175.86 55.50" xml:space="preserve">
	<g>
		<path fill="#FFFFFF" fill-opacity="1" stroke-linejoin="round" d="M 21.6697,8.15578L 21.6697,29.8158C 21.6697,33.1358 20.6895,35.8758 18.7291,38.0357C 16.7687,40.1957 14.2857,41.2757 11.2801,41.2757C 10.4013,41.2757 9.37171,41.0408 8.19131,40.5707L 8.19131,31.3008C 8.71131,31.5508 9.18711,31.6758 9.61871,31.6758C 10.9967,31.6758 11.6857,30.6408 11.6857,28.5707L 11.6857,8.15578L 21.6697,8.15578 Z "/>
		<path fill="#FFFFFF" fill-opacity="1" stroke-linejoin="round" d="M 33.3853,16.3158C 36.8849,16.3158 39.884,17.5145 42.3826,19.912C 44.8812,22.3095 46.1305,25.1832 46.1305,28.5333C 46.1305,31.9282 44.8643,34.8207 42.3319,37.2108C 39.7995,39.6007 36.7445,40.7957 33.1669,40.7957C 29.5841,40.7957 26.5226,39.597 23.9824,37.1995C 21.4422,34.802 20.1721,31.9132 20.1721,28.5333C 20.1721,25.0882 21.4422,22.1908 23.9824,19.8407C 26.5226,17.4907 29.6569,16.3158 33.3853,16.3158 Z M 33.1357,24.9557C 32.0333,24.9557 31.0947,25.3032 30.3199,25.9983C 29.5451,26.6933 29.1577,27.5457 29.1577,28.5557C 29.1577,29.5457 29.549,30.3932 30.3316,31.0982C 31.1142,31.8032 32.0489,32.1558 33.1357,32.1558C 34.2433,32.1558 35.1884,31.8032 35.971,31.0982C 36.7536,30.3932 37.1449,29.5457 37.1449,28.5557C 37.1449,27.5457 36.7575,26.6933 35.9827,25.9983C 35.2079,25.3032 34.2589,24.9557 33.1357,24.9557 Z "/>
		<path fill="#FFFFFF" fill-opacity="1" stroke-linejoin="round" d="M 69.1795,30.2357L 55.3579,30.2357C 55.1967,29.5357 55.1161,28.8932 55.1161,28.3082C 55.1161,27.4932 55.2383,26.6957 55.4827,25.9158L 60.1159,25.9158C 59.7883,23.9957 58.7587,23.0357 57.0271,23.0357C 55.8727,23.0357 54.9328,23.5245 54.2074,24.502C 53.482,25.4795 53.1193,26.7308 53.1193,28.2558C 53.1193,29.8458 53.4703,31.1332 54.1723,32.1182C 54.8743,33.1033 55.7921,33.5958 56.9257,33.5958C 57.8513,33.5958 58.7431,33.1283 59.6011,32.1933L 64.7959,38.0882C 62.3935,39.8932 59.7259,40.7957 56.7931,40.7957C 53.2207,40.7957 50.2177,39.6258 47.7841,37.2857C 45.3505,34.9457 44.1337,32.0482 44.1337,28.5933C 44.1337,25.1532 45.3544,22.247 47.7958,19.8745C 50.2372,17.502 53.2363,16.3158 56.7931,16.3158C 60.2667,16.3158 63.1852,17.4932 65.5486,19.8482C 67.912,22.2033 69.0937,25.1058 69.0937,28.5557C 69.0937,28.9107 69.1223,29.4708 69.1795,30.2357 Z "/>
		<path fill="#FFFFFF" fill-opacity="1" stroke-linejoin="round" d="M 105.808,8.15578L 97.0333,22.7208L 105.762,40.3158L 94.6465,40.3158L 87.1117,22.5333L 95.6449,8.15578L 105.808,8.15578 Z M 87.0649,8.15578L 87.0649,40.3158L 77.0809,40.3158L 77.0809,8.15578L 87.0649,8.15578 Z "/>
		<path fill="#FFFFFF" fill-opacity="1" stroke-linejoin="round" d="M 128.085,30.2357L 114.264,30.2357C 114.102,29.5357 114.022,28.8932 114.022,28.3082C 114.022,27.4932 114.144,26.6957 114.388,25.9158L 119.022,25.9158C 118.694,23.9957 117.664,23.0357 115.933,23.0357C 114.778,23.0357 113.838,23.5245 113.113,24.502C 112.388,25.4795 112.025,26.7308 112.025,28.2558C 112.025,29.8458 112.376,31.1332 113.078,32.1182C 113.78,33.1033 114.698,33.5958 115.831,33.5958C 116.757,33.5958 117.649,33.1283 118.507,32.1933L 123.702,38.0882C 121.299,39.8932 118.632,40.7957 115.699,40.7957C 112.126,40.7957 109.123,39.6258 106.69,37.2857C 104.256,34.9457 103.039,32.0482 103.039,28.5933C 103.039,25.1532 104.26,22.247 106.701,19.8745C 109.143,17.502 112.142,16.3158 115.699,16.3158C 119.172,16.3158 122.091,17.4932 124.454,19.8482C 126.818,22.2033 127.999,25.1058 127.999,28.5557C 127.999,28.9107 128.028,29.4708 128.085,30.2357 Z "/>
		<rect x="127.001" y="8.15578" fill="#FFFFFF" fill-opacity="1" stroke-linejoin="round" width="8.98559" height="32.16"/>
		<rect x="136.985" y="8.15578" fill="#FFFFFF" fill-opacity="1" stroke-linejoin="round" width="8.9856" height="32.16"/>
		<path fill="#FFFFFF" fill-opacity="1" stroke-linejoin="round" d="M 150.463,50.5532L 150.463,42.9408C 151.67,43.4307 152.725,43.6758 153.63,43.6758C 156.521,43.6758 158.396,42.0758 159.254,38.8758C 157.684,39.8358 156.144,40.3158 154.636,40.3158C 152.411,40.3158 150.576,39.4958 149.133,37.8558C 147.69,36.2157 146.969,34.1283 146.969,31.5933L 146.969,16.7957L 155.954,16.7957L 155.954,29.4408C 155.954,30.9307 156.55,31.6758 157.741,31.6758C 158.88,31.6758 159.449,30.8607 159.449,29.2308L 159.449,16.7957L 168.434,16.7957L 168.434,37.7957C 168.434,41.6507 167.316,44.7633 165.081,47.1332C 162.418,49.9483 159.197,51.3558 155.416,51.3558C 153.757,51.3558 152.107,51.0882 150.463,50.5532 Z "/>
	</g>
</svg>
